<svg version="1.1" id="Layer_1" xmlns="http://www.w3.org/2000/svg" xmlns:xlink="http://www.w3.org/1999/xlink" x="0px" y="0px"
	 width="100%" viewBox="0 0 576 416" enable-background="new 0 0 576 416" xml:space="preserve">
<path fill="#000000" opacity="1.000000" stroke="none" 
	d="
M442.758331,170.961639 
	C448.574249,173.450546 450.696899,177.929245 450.590332,183.513519 
	C450.487854,188.884415 447.506500,192.595490 442.708649,194.691956 
	C440.406097,195.698074 438.713837,196.886520 438.156006,199.472427 
	C436.160583,208.722931 434.177063,217.977676 432.001038,227.186386 
	C431.469086,229.437454 432.060944,230.804581 433.527313,232.480499 
	C438.252258,237.880600 438.566864,244.413681 434.658661,249.357147 
	C430.601074,254.489563 424.498901,255.899185 418.090088,252.635025 
	C415.223846,251.175186 412.857086,251.185272 410.096558,252.513626 
	C404.998505,254.966827 399.820465,257.254639 394.663635,259.584564 
	C392.086060,260.749115 390.554199,262.324371 390.116516,265.480194 
	C389.059509,273.101471 381.501617,277.819916 374.176971,275.474335 
	C371.381012,274.578979 369.476257,275.013458 367.399261,276.805450 
	C363.241089,280.392914 359.004883,283.893372 354.719574,287.328278 
	C353.107361,288.620575 352.702942,289.968231 352.905426,292.065857 
	C353.659241,299.873627 349.807587,305.268036 342.062164,306.896851 
	C339.386688,307.459473 338.029419,308.632202 337.037964,310.969391 
	C335.543945,314.491394 333.945465,317.983093 332.152191,321.360626 
	C329.866974,325.664703 328.873779,329.558929 331.685760,334.349670 
	C334.419800,339.007599 332.054871,345.593689 327.583557,348.896118 
	C323.057678,352.238892 316.401428,352.208588 312.202911,348.826080 
	C307.541290,345.070526 305.118225,338.167572 308.408356,333.761902 
	C312.878021,327.776794 310.520874,322.702332 308.521301,317.087341 
	C304.114685,304.713074 299.854797,292.285980 295.614960,279.853210 
	C294.402130,276.296722 293.264343,273.065674 288.623413,272.633545 
	C287.017181,272.483948 285.038177,271.118469 284.126038,269.722504 
	C281.501648,265.705902 277.753845,266.025452 273.922913,266.448639 
	C263.014160,267.653656 252.123138,269.024902 241.205688,270.140137 
	C238.614212,270.404877 237.099930,271.244812 235.844131,273.671539 
	C232.839706,279.477325 228.028381,281.414978 221.089981,280.205505 
	C216.473785,279.400818 212.390732,274.836731 211.810150,269.142639 
	C211.546951,266.561554 210.347290,265.327942 208.249268,264.305573 
	C195.528946,258.106781 182.823578,251.876755 170.148911,245.585266 
	C167.940750,244.489182 166.229492,244.880753 164.141861,246.082443 
	C158.497635,249.331406 153.893204,248.859772 149.404312,245.013290 
	C145.126755,241.347900 143.678131,235.788635 145.957962,230.076080 
	C146.953323,227.582031 146.661697,225.717056 145.228256,223.589539 
	C138.528290,213.645477 131.899094,203.653290 125.312103,193.633942 
	C123.834457,191.386337 122.117882,190.283081 119.257912,190.062485 
	C111.491440,189.463470 107.338280,185.614410 106.625618,179.065857 
	C105.827621,171.733215 108.828049,167.310684 116.769829,164.820236 
	C118.958412,164.133926 119.513458,162.755585 120.076965,160.965363 
	C123.371780,150.497757 126.605392,140.008667 130.103912,129.608994 
	C130.962036,127.058159 129.417557,125.979462 128.274811,124.413895 
	C122.255653,116.167633 126.110680,105.823952 135.971695,103.412231 
	C139.372955,102.580376 142.272537,103.715134 145.002167,105.313187 
	C146.967789,106.463959 148.514282,106.481621 150.537888,105.445572 
	C168.617096,96.189270 186.734390,87.006874 204.881531,77.884384 
	C207.308533,76.664337 208.645111,75.228714 209.021149,72.311707 
	C209.745728,66.691109 213.185410,62.891987 218.657867,61.367882 
	C223.974930,59.887054 228.627792,61.475918 232.066223,65.743111 
	C233.723007,67.799232 235.318680,68.468834 237.986328,68.233780 
	C251.564468,67.037346 265.163025,66.066452 278.760040,65.094902 
	C281.675751,64.886566 283.605896,63.779495 285.041290,61.058727 
	C287.443451,56.505474 291.700470,54.541962 296.695312,54.782375 
	C302.148773,55.044857 306.455322,57.757217 308.055298,63.061226 
	C309.312897,67.230095 311.983246,68.690147 315.738007,69.754875 
	C323.415131,71.931870 331.026825,74.356613 338.597595,76.882736 
	C341.392792,77.815407 343.527649,77.682510 345.907898,75.676918 
	C349.813141,72.386322 354.502167,71.881233 359.024017,74.148552 
	C363.606171,76.446098 366.707855,80.184944 366.258514,85.689873 
	C365.963776,89.300339 367.436646,91.476761 370.247620,93.556023 
	C381.626190,101.972626 392.880676,110.558784 404.099457,119.188309 
	C406.658234,121.156517 408.941254,122.191910 412.260956,120.755089 
	C417.396210,118.532455 421.893280,120.758484 425.361542,124.365570 
	C428.931213,128.078186 430.503021,133.053040 427.642822,137.671829 
	C424.569641,142.634583 425.871796,146.679489 428.185394,151.166809 
	C430.087799,154.856705 431.797729,158.685593 433.161346,162.603119 
	C434.756195,167.184921 437.093231,170.580887 442.758331,170.961639 
M193.014023,176.931580 
	C192.635696,168.287033 192.021744,159.643967 191.967743,150.997406 
	C191.935547,145.840759 192.068466,141.035034 186.519165,138.344086 
	C185.570343,137.884003 184.565750,136.705521 184.353958,135.697739 
	C183.204803,130.229599 179.149094,128.994431 174.467987,128.419968 
	C172.990555,128.238678 171.555130,127.737144 170.088654,127.440666 
	C160.257935,125.453186 150.364014,120.284866 140.848724,128.765228 
	C139.384140,130.070511 137.793839,130.778275 137.144745,132.918289 
	C134.395462,141.982422 131.531754,151.014435 128.541290,160.002090 
	C125.852417,168.083405 129.913589,175.454605 138.163528,177.030258 
	C151.702408,179.616058 165.292709,181.957947 178.769241,184.834183 
	C185.494980,186.269623 189.902893,184.491974 193.014023,176.931580 
M274.556122,163.191498 
	C270.377350,149.192413 266.120300,135.215881 262.077667,121.177612 
	C261.126678,117.875336 259.764526,115.721046 256.187378,114.659706 
	C251.531601,113.278366 248.050232,109.552284 248.143005,104.859299 
	C248.260468,98.918022 245.417999,95.737823 241.040283,92.888069 
	C238.119186,90.986534 235.389847,88.791313 232.564575,86.741486 
	C228.592346,83.859535 220.811295,85.619865 218.579010,90.041740 
	C215.057343,97.017784 211.723816,104.088623 208.228928,111.078476 
	C205.929001,115.678413 203.269196,120.145325 207.451248,125.151077 
	C208.107224,125.936272 208.205368,127.373596 208.182281,128.501617 
	C208.133026,130.906219 209.537216,132.015472 211.424255,133.020447 
	C230.939270,143.413666 250.424057,153.863678 269.944641,164.246399 
	C271.419922,165.031097 273.206909,166.597504 274.556122,163.191498 
M349.105286,196.652161 
	C353.607941,193.511307 358.065247,190.302780 362.625977,187.248627 
	C367.183228,184.196762 372.347626,181.680862 371.095581,174.678024 
	C370.943542,173.827774 371.535736,172.708878 372.064056,171.897522 
	C373.783630,169.256943 373.078491,166.973480 371.547638,164.511047 
	C368.122589,159.001801 364.898834,153.367828 361.556000,147.806961 
	C358.967957,143.501694 347.897644,140.501953 343.503418,143.114120 
	C328.776367,151.868622 314.070282,160.660980 299.463440,169.613907 
	C293.192902,173.457306 293.375092,177.584534 299.712799,181.600113 
	C308.002777,186.852646 316.406769,191.929016 324.609558,197.312988 
	C327.292389,199.073853 329.532562,199.494492 332.381653,197.859726 
	C335.285583,196.193512 338.542633,196.236923 341.518280,197.668610 
	C344.102509,198.911942 346.291168,198.699371 349.105286,196.652161 
M261.023315,216.338150 
	C258.095612,219.767746 262.526489,222.673004 261.820709,225.640289 
	C260.293732,232.060287 264.660767,234.487808 268.709259,237.388290 
	C271.548798,239.422638 274.360291,241.510452 277.049072,243.737656 
	C281.450745,247.383743 285.710052,251.153809 292.074615,248.042160 
	C292.862213,247.657089 294.099365,247.848877 295.014862,248.135422 
	C297.309875,248.853775 298.831726,247.876968 300.241150,246.245407 
	C308.073364,237.178543 315.998718,228.190903 323.739929,219.047256 
	C326.704742,215.545364 325.049408,206.766068 321.126892,204.258575 
	C314.397034,199.956451 307.608917,195.745056 300.828613,191.522308 
	C295.489105,188.196884 290.459290,183.191788 283.494232,188.144531 
	C283.378662,188.226700 283.161926,188.211151 283.003387,188.181747 
	C279.076385,187.453537 277.403168,190.103271 275.680481,192.894058 
	C270.962036,200.537994 266.145996,208.121689 261.023315,216.338150 
M406.322906,220.155197 
	C400.791046,211.433090 395.276489,202.699890 389.711975,193.998672 
	C388.658447,192.351318 387.803864,190.493378 385.488983,190.055374 
	C378.935455,188.815323 372.489746,187.383865 367.069366,193.279236 
	C365.193085,195.319916 362.606628,196.752563 360.223846,198.273849 
	C354.332428,202.035248 348.454834,205.465759 348.952118,214.117966 
	C349.086121,216.450195 348.726776,218.441284 350.264191,220.440506 
	C356.051880,227.966629 361.713623,235.589523 367.482025,243.130661 
	C370.420197,246.971802 372.607513,252.125443 379.141235,250.162811 
	C379.790802,249.967697 380.846436,250.440903 381.462097,250.924286 
	C386.576355,254.939850 391.310242,252.954147 396.211029,250.346893 
	C400.025330,248.317642 404.082397,246.747299 408.012817,244.932388 
	C409.511902,244.240143 411.022217,243.598267 411.606323,241.746704 
	C413.362885,236.178452 415.083374,230.729996 409.942749,225.799820 
	C408.545013,224.459305 407.781921,222.457016 406.322906,220.155197 
M326.325439,81.263763 
	C321.425842,79.676811 316.527740,78.085274 311.626129,76.504631 
	C308.675018,75.552979 305.994293,75.283638 303.431183,77.843193 
	C301.519043,79.752678 298.530945,81.028557 296.077057,80.154396 
	C289.696167,77.881233 286.642822,82.206955 283.069550,85.792641 
	C280.604675,88.266106 278.162170,90.761871 275.692963,93.230980 
	C271.174103,97.749657 271.841858,101.618172 277.862701,103.478264 
	C298.486420,109.849777 319.155273,116.077400 339.844543,122.233345 
	C347.359680,124.469398 351.960724,120.420685 351.205261,112.637878 
	C350.964630,110.158966 350.945007,107.657784 350.849060,105.165840 
	C350.705292,101.434242 350.364777,98.010376 346.118744,96.229919 
	C344.012482,95.346703 342.366455,93.116051 342.031952,90.797958 
	C341.317322,85.846054 337.704193,84.562424 333.778137,83.439255 
	C331.546051,82.800697 329.313416,82.164139 326.325439,81.263763 
M225.690353,254.643219 
	C227.467041,254.918610 228.488800,253.871506 229.309494,252.532898 
	C231.916992,248.279770 234.428925,243.965561 237.133179,239.775253 
	C238.622253,237.467880 238.698975,235.537933 237.588562,232.865021 
	C233.863937,223.899323 239.356110,215.424377 249.092468,214.881378 
	C251.712112,214.735275 253.370651,213.876373 254.743805,211.646133 
	C259.715240,203.571625 264.857758,195.602570 269.897308,187.569641 
	C270.749664,186.211014 272.011353,184.905090 271.235687,182.999130 
	C269.636871,181.538925 267.698608,182.114700 266.019348,182.446136 
	C248.919861,185.821136 231.833282,189.264023 214.766693,192.801804 
	C210.002640,193.789352 205.282806,201.626343 206.840561,206.198257 
	C211.176453,218.923996 215.619797,231.617508 220.323135,244.210800 
	C221.623840,247.693497 221.630173,251.879700 225.690353,254.643219 
M306.976990,120.675980 
	C296.629333,117.583267 286.290405,114.460724 275.926941,111.421852 
	C273.734467,110.778954 271.478638,109.971985 269.526764,112.306252 
	C267.766663,114.411133 268.803040,116.332787 269.423370,118.384567 
	C273.361481,131.409470 277.324310,144.427322 281.167511,157.480286 
	C282.878113,163.290039 289.524658,166.174240 294.839844,163.037430 
	C309.447205,154.416733 324.004517,145.710953 338.551941,136.989349 
	C340.204865,135.998383 342.654968,135.212021 342.426361,132.883148 
	C342.163971,130.210098 339.303833,130.157654 337.390717,129.576782 
	C327.539368,126.585655 317.627563,123.793716 306.976990,120.675980 
M250.316544,177.733170 
	C256.212250,176.012329 262.563324,175.953293 268.247162,173.511536 
	C267.857300,171.963211 267.137817,171.606964 266.387299,171.206284 
	C251.844910,163.442337 237.323074,155.639893 222.773926,147.888687 
	C217.778473,145.227310 212.777069,142.565063 207.673340,140.122681 
	C203.368088,138.062408 200.153732,139.900513 200.204361,144.474457 
	C200.322296,155.127716 199.730774,165.804230 201.100739,176.426880 
	C201.672150,180.857620 208.613480,186.260208 212.883102,185.399338 
	C225.091415,182.937836 237.290207,180.429184 250.316544,177.733170 
M375.348816,107.182190 
	C371.774292,104.457703 368.206055,101.724854 364.622162,99.012764 
	C363.151489,97.899826 361.605499,96.632683 359.658691,97.701172 
	C357.867950,98.684029 358.237610,100.573250 358.339081,102.199028 
	C358.587555,106.180824 359.138245,110.153992 359.181946,114.134857 
	C359.212708,116.939171 360.155792,118.560188 362.613525,120.100143 
	C368.668243,123.893890 370.296478,129.780731 367.428558,136.464828 
	C366.418396,138.819153 366.306549,140.744217 367.701263,142.999390 
	C371.373779,148.937698 374.755127,155.056000 378.423309,160.997101 
	C381.641418,166.209320 386.748932,166.337601 390.413177,161.394928 
	C393.583832,157.118118 396.542633,152.681335 399.787872,148.463608 
	C402.956512,144.345413 406.685547,140.519043 403.065491,134.780106 
	C402.683014,134.173782 402.779877,133.103363 402.970459,132.325714 
	C403.736176,129.201004 402.129486,127.419312 399.805328,125.693489 
	C391.788330,119.740364 383.873657,113.649414 375.348816,107.182190 
M359.695435,245.784439 
	C354.355103,238.779388 349.060913,231.738495 343.655304,224.784195 
	C340.892578,221.229996 332.568237,220.893295 329.634857,224.263199 
	C321.998993,233.035355 314.473969,241.904022 306.913788,250.741943 
	C305.819794,252.020798 304.692078,253.380707 305.389191,255.206284 
	C306.166382,257.241455 308.079315,256.761078 309.679474,256.867096 
	C322.445740,257.713074 335.224945,258.108978 348.020691,258.131256 
	C352.834656,258.139618 357.651794,258.727905 362.460449,258.644653 
	C366.487183,258.574982 367.436493,256.410248 365.158478,253.164932 
	C363.536530,250.854263 361.789825,248.631149 359.695435,245.784439 
M170.856003,234.661118 
	C170.950729,237.006500 172.510544,238.050064 174.422150,238.975662 
	C186.979034,245.055664 199.501846,251.206055 212.048050,257.308197 
	C213.045105,257.793152 214.100098,258.584351 215.293381,257.520996 
	C216.293549,255.888855 215.465820,254.332275 214.920090,252.805695 
	C209.726700,238.278244 204.560394,223.740677 199.262177,209.251404 
	C197.332535,203.974258 192.918610,203.199188 189.061798,207.303101 
	C183.487289,213.234787 178.095581,219.346069 172.351898,225.107590 
	C169.593552,227.874527 168.855789,230.536835 170.856003,234.661118 
M150.734009,217.746857 
	C154.927155,223.968872 161.947006,224.669327 166.995880,219.312607 
	C172.008682,213.994171 177.025711,208.676880 181.906189,203.238220 
	C183.568466,201.385818 186.349396,200.016174 185.319229,196.617172 
	C184.251907,193.095688 181.089142,193.086838 178.477936,192.576782 
	C164.005280,189.749771 149.498459,187.096344 134.992096,184.445007 
	C133.289673,184.133850 131.365005,183.432037 129.510696,186.070724 
	C136.351517,196.283768 143.341736,206.719864 150.734009,217.746857 
M175.065674,120.202240 
	C179.829117,121.877113 184.376175,123.243156 188.456558,118.360863 
	C189.672760,116.905632 192.255890,116.330566 194.324982,115.924843 
	C196.355362,115.526726 197.579285,114.647217 198.455826,112.845177 
	C202.814728,103.883743 207.249466,94.959198 211.606567,85.996902 
	C211.914856,85.362816 212.409576,84.482872 211.185593,83.602219 
	C191.472214,93.640282 171.628693,103.744606 151.785172,113.848938 
	C151.883026,114.319374 151.980881,114.789818 152.078735,115.260254 
	C159.475952,116.832275 166.873184,118.404289 175.065674,120.202240 
M411.193970,213.337097 
	C414.729492,218.423813 417.466766,224.099777 421.676086,228.827881 
	C422.657532,228.053131 423.260864,227.825897 423.379333,227.447083 
	C426.553284,217.296494 428.622101,206.874847 430.727539,196.472778 
	C431.329224,193.500092 425.217621,185.588867 422.541107,185.268097 
	C414.953094,184.358688 407.361206,183.481766 399.771881,182.583252 
	C397.909607,182.362778 396.066162,182.186798 394.882172,184.099045 
	C393.671600,186.054199 394.858368,187.617935 395.824707,189.146439 
	C400.800629,197.017136 405.814941,204.863571 411.193970,213.337097 
M327.029419,289.896057 
	C318.933685,284.019073 310.837952,278.142090 302.742218,272.265137 
	C302.381866,272.575073 302.021515,272.885010 301.661194,273.194946 
	C307.465759,290.645721 313.211761,308.117249 320.574921,325.305786 
	C324.997192,318.751068 328.064575,311.872711 330.697693,304.791168 
	C330.946899,304.121002 330.791290,302.959625 330.345276,302.426788 
	C327.414062,298.925232 327.797241,294.666290 327.029419,289.896057 
M404.023499,175.558121 
	C410.122589,176.149033 416.218964,176.769516 422.321594,177.321365 
	C427.143860,177.757431 429.871033,174.217300 427.988342,169.808472 
	C425.059174,162.949234 422.038483,156.126190 418.900970,149.359940 
	C416.998535,145.257202 412.524719,144.612625 409.763428,148.192719 
	C404.901672,154.496078 400.259399,160.974945 395.699554,167.502106 
	C393.713654,170.344833 395.354401,173.932281 398.739075,174.698776 
	C400.190674,175.027512 401.679688,175.190994 404.023499,175.558121 
M238.858109,252.318512 
	C238.318954,253.159897 237.758301,253.988403 237.245041,254.845306 
	C236.153397,256.667816 234.381332,258.438141 235.735916,260.753235 
	C237.139099,263.151428 239.549347,262.283997 241.635345,262.048065 
	C250.393341,261.057312 259.151123,260.135651 267.948273,259.490234 
	C271.933594,259.197784 276.194366,259.160400 280.173523,256.948517 
	C279.716095,256.144714 279.537598,255.438171 279.084076,255.093185 
	C272.323334,249.950668 265.528351,244.853134 258.734955,239.753693 
	C257.925476,239.146042 257.021637,238.552948 255.979614,238.907364 
	C250.484604,240.776230 243.546463,240.248077 241.442047,247.789597 
	C241.052383,249.186005 239.981750,250.392410 238.858109,252.318512 
M352.451721,278.934357 
	C356.642853,275.146423 361.696625,272.257080 364.933899,267.024780 
	C345.731537,266.530487 326.791077,265.858276 307.750702,265.530609 
	C314.486389,270.959625 321.387482,275.801392 328.153412,280.825165 
	C330.935242,282.890717 333.504913,283.733276 336.755890,281.829193 
	C338.645538,280.722443 340.964691,280.513977 343.042816,281.476868 
	C346.610931,283.130157 349.450775,282.194000 352.451721,278.934357 
M277.751648,80.272461 
	C279.788788,78.061447 282.494476,76.322029 283.404205,72.521103 
	C266.963440,73.952438 251.056290,75.337318 234.490402,76.779541 
	C236.707031,80.315056 239.445450,81.956772 241.924652,83.757095 
	C247.493515,87.801010 252.117126,92.759422 260.846863,90.593941 
	C265.251831,89.501259 269.192993,89.308922 272.255768,85.645882 
	C273.743500,83.866600 275.553802,82.357025 277.751648,80.272461 
z"/>
</svg>